<svg width="600" height="600" fill="none" xmlns="http://www.w3.org/2000/svg">
  <g opacity=".05" fill="#272525">
    <path fill-rule="evenodd" clip-rule="evenodd" d="M537.5 37.5 550 50l50-50v25l-37.5 37.5L575 75l25-25v25l-12.5 12.5L600 100v25l-87.5 87.5L525 225l75-75v25l-62.5 62.5L550 250l50-50v25l-37.5 37.5L575 275l25-25v25l-12.5 12.5L600 300v25l-87.5 87.5L525 425l75-75v25l-62.5 62.5L550 450l50-50v25l-37.5 37.5L575 475l25-25v25l-12.5 12.5L600 500v25l-75 75h-25l12.5-12.5L500 575l-12.5 12.5L500 600h-25l-75-75-75 75h-25l12.5-12.5L300 575l-12.5 12.5L300 600h-25l-75-75-75 75h-25l12.5-12.5L100 575l-12.5 12.5L100 600H75L0 525v-25l12.5-12.5L0 475v-25l25 25 12.5-12.5L0 425v-25l50 50 12.5-12.5L0 375v-25l75 75 12.5-12.5L0 325v-25l12.5-12.5L0 275v-25l25 25 12.5-12.5L0 225v-25l50 50 12.5-12.5L0 175v-25l75 75 12.5-12.5L0 125v-25l12.5-12.5L0 75V50l25 25 12.5-12.5L0 25V0l50 50 12.5-12.5L25 0h25l25 25 12.5-12.5L75 0h50l-12.5 12.5L125 25l25-25h25l-37.5 37.5L150 50l50-50 50 50 12.5-12.5L225 0h25l25 25 12.5-12.5L275 0h50l-12.5 12.5L325 25l25-25h25l-37.5 37.5L350 50l50-50 50 50 12.5-12.5L425 0h25l25 25 12.5-12.5L475 0h50l-12.5 12.5L525 25l25-25h25l-37.5 37.5ZM500 225l87.5 87.5L575 325l-75-75-75 75-12.5-12.5L500 225Zm0 50 62.5 62.5L550 350l-50-50-50 50-12.5-12.5L500 275Zm0 50 37.5 37.5L525 375l-25-25-25 25-12.5-12.5L500 325Zm0 50 12.5 12.5L500 400l-12.5-12.5L500 375ZM12.5 512.5 25 525l75-75 75 75 12.5-12.5L100 425l-87.5 87.5Zm200 0L225 525l75-75 75 75 12.5-12.5L300 425l-87.5 87.5Zm200 0L425 525l75-75 75 75 12.5-12.5L500 425l-87.5 87.5ZM400 325l87.5 87.5L475 425l-75-75-75 75-12.5-12.5L400 325Zm0 50 62.5 62.5L450 450l-50-50-50 50-12.5-12.5L400 375Zm0 50 37.5 37.5L425 475l-25-25-25 25-12.5-12.5L400 425Zm0 50 12.5 12.5L400 500l-12.5-12.5L400 475Zm-212.5 12.5L200 500l12.5-12.5L200 475l-12.5 12.5ZM225 475l12.5-12.5L200 425l-37.5 37.5L175 475l25-25 25 25Zm25-25 12.5-12.5L200 375l-62.5 62.5L150 450l50-50 50 50Zm25-25 12.5-12.5L200 325l-87.5 87.5L125 425l75-75 75 75Zm25-25 12.5-12.5L300 375l-12.5 12.5L300 400Zm-187.5-12.5L100 400l-12.5-12.5L100 375l12.5 12.5Zm300-100L400 300l-12.5-12.5L400 275l12.5 12.5Zm-75 75L325 375l-25-25-25 25-12.5-12.5L300 325l37.5 37.5Zm25-25L350 350l-50-50-50 50-12.5-12.5L300 275l62.5 62.5Zm25-25L375 325l-75-75-75 75-12.5-12.5L300 225l87.5 87.5Zm-175-25L200 300l-12.5-12.5L200 275l12.5 12.5Zm-75 75L125 375l-25-25-25 25-12.5-12.5L100 325l37.5 37.5Zm25-25L150 350l-50-50-50 50-12.5-12.5L100 275l62.5 62.5Zm25-25L175 325l-75-75-75 75-12.5-12.5L100 225l87.5 87.5ZM500 25l87.5 87.5L575 125l-75-75-75 75-12.5-12.5L500 25Zm0 50 62.5 62.5L550 150l-50-50-50 50-12.5-12.5L500 75Zm0 50 37.5 37.5L525 175l-25-25-25 25-12.5-12.5L500 125Zm0 50 12.5 12.5L500 200l-12.5-12.5L500 175Zm-100-50 87.5 87.5L475 225l-75-75-75 75-12.5-12.5L400 125Zm0 50 62.5 62.5L450 250l-50-50-50 50-12.5-12.5L400 175Zm0 50 37.5 37.5L425 275l-25-25-25 25-12.5-12.5L400 225Zm-87.5-37.5L300 200l-12.5-12.5L300 175l12.5 12.5Zm-75 75L225 275l-25-25-25 25-12.5-12.5L200 225l37.5 37.5Zm25-25L250 250l-50-50-50 50-12.5-12.5L200 175l62.5 62.5Zm25-25L275 225l-75-75-75 75-12.5-12.5L200 125l87.5 87.5Zm-175-25L100 200l-12.5-12.5L100 175l12.5 12.5Zm300-100L400 100l-12.5-12.5L400 75l12.5 12.5Zm-75 75L325 175l-25-25-25 25-12.5-12.5L300 125l37.5 37.5Zm25-25L350 150l-50-50-50 50-12.5-12.5L300 75l62.5 62.5Zm25-25L375 125l-75-75-75 75-12.5-12.5L300 25l87.5 87.5Zm-175-25L200 100l-12.5-12.5L200 75l12.5 12.5Zm-75 75L125 175l-25-25-25 25-12.5-12.5L100 125l37.5 37.5Zm25-25L150 150l-50-50-50 50-12.5-12.5L100 75l62.5 62.5Zm25-25L175 125l-75-75-75 75-12.5-12.5L100 25l87.5 87.5Zm-25-50L175 75l25-25 25 25 12.5-12.5L200 25l-37.5 37.5Zm200 0L375 75l25-25 25 25 12.5-12.5L400 25l-37.5 37.5Zm-300 500L75 575l25-25 25 25 12.5-12.5L100 525l-37.5 37.5ZM100 500l50 50 12.5-12.5L100 475l-62.5 62.5L50 550l50-50Zm162.5 62.5L275 575l25-25 25 25 12.5-12.5L300 525l-37.5 37.5ZM300 500l50 50 12.5-12.5L300 475l-62.5 62.5L250 550l50-50Zm162.5 62.5L475 575l25-25 25 25 12.5-12.5L500 525l-37.5 37.5ZM500 500l50 50 12.5-12.5L500 475l-62.5 62.5L450 550l50-50Z"/>
    <path d="M0 550v25l25 25h25L0 550Zm600 25-25 25h-25l50-50v25Zm-425 25h-25l50-50 50 50h-25l-25-25-25 25Zm175 0h25l25-25 25 25h25l-50-50-50 50Z"/>
  </g>
</svg>